<?xml version="1.0" encoding="UTF-8"?>
<svg xmlns="http://www.w3.org/2000/svg" xmlns:xlink="http://www.w3.org/1999/xlink" width="60px" height="60px" viewBox="0 0 60 60" version="1.1">
<g id="surface1">
<path style=" stroke:none;fill-rule:nonzero;fill:rgb(32.54902%,50.980392%,63.137255%);fill-opacity:1;" d="M 19.34375 46.382812 C 19.34375 46.382812 16.253906 47.714844 21.546875 48.164062 C 27.960938 48.707031 31.238281 48.628906 38.304688 47.636719 C 38.304688 47.636719 40.164062 48.5 42.757812 49.246094 C 26.914062 54.273438 6.902344 48.957031 19.34375 46.382812 M 17.410156 39.824219 C 17.410156 39.824219 13.941406 41.726562 19.238281 42.132812 C 26.089844 42.652344 31.5 42.695312 40.863281 41.363281 C 40.863281 41.363281 42.15625 42.335938 44.195312 42.867188 C 25.035156 47.011719 3.699219 43.191406 17.410156 39.824219 "/>
<path style=" stroke:none;fill-rule:nonzero;fill:rgb(90.588235%,43.529412%,0%);fill-opacity:1;" d="M 33.730469 28.703125 C 37.636719 32.027344 32.707031 35.019531 32.707031 35.019531 C 32.707031 35.019531 42.617188 31.234375 38.066406 26.492188 C 33.8125 22.070312 30.554688 19.871094 48.203125 12.296875 C 48.203125 12.296875 20.496094 17.417969 33.730469 28.703125 "/>
<path style=" stroke:none;fill-rule:nonzero;fill:rgb(32.54902%,50.980392%,63.137255%);fill-opacity:1;" d="M 54.6875 51.234375 C 54.6875 51.234375 56.976562 52.628906 52.164062 53.707031 C 43.019531 55.757812 14.101562 56.378906 6.066406 53.789062 C 3.179688 52.859375 8.59375 51.570312 10.300781 51.300781 C 12.074219 51.015625 13.089844 51.066406 13.089844 51.066406 C 9.878906 49.394531 -7.667969 54.355469 4.179688 55.773438 C 36.480469 59.652344 63.066406 54.03125 54.6875 51.234375 M 20.832031 33.03125 C 20.832031 33.03125 6.121094 35.617188 15.625 36.554688 C 19.636719 36.953125 27.632812 36.863281 35.082031 36.402344 C 41.167969 36.019531 47.28125 35.214844 47.28125 35.214844 C 47.28125 35.214844 45.132812 35.894531 43.582031 36.679688 C 28.644531 39.585938 -0.210938 38.234375 8.09375 35.257812 C 15.121094 32.746094 20.832031 33.03125 20.832031 33.03125 M 47.21875 43.945312 C 62.40625 38.105469 55.382812 32.496094 50.484375 33.25 C 49.28125 33.4375 48.746094 33.597656 48.746094 33.597656 C 48.746094 33.597656 49.195312 33.082031 50.046875 32.855469 C 59.738281 30.335938 67.195312 40.296875 46.914062 44.242188 C 46.914062 44.242188 47.152344 44.085938 47.21875 43.945312 "/>
<path style=" stroke:none;fill-rule:nonzero;fill:rgb(90.588235%,43.529412%,0%);fill-opacity:1;" d="M 38.066406 0.0625 C 38.066406 0.0625 46.476562 6.289062 30.089844 15.863281 C 16.949219 23.542969 27.09375 27.917969 30.085938 32.921875 C 22.414062 27.800781 16.785156 23.292969 20.5625 19.097656 C 26.105469 12.9375 41.457031 9.953125 38.066406 0.0625 "/>
<path style=" stroke:none;fill-rule:nonzero;fill:rgb(32.54902%,50.980392%,63.137255%);fill-opacity:1;" d="M 22.324219 59.769531 C 36.902344 60.460938 59.28125 59.386719 59.8125 54.28125 C 59.8125 54.28125 58.792969 56.214844 47.765625 57.753906 C 35.328125 59.484375 19.984375 59.285156 10.882812 58.171875 C 10.882812 58.171875 12.746094 59.3125 22.324219 59.769531 "/>
</g>
</svg>
