<?xml version="1.0" encoding="UTF-8"?>
<svg xmlns="http://www.w3.org/2000/svg" xmlns:xlink="http://www.w3.org/1999/xlink" width="60px" height="60px" viewBox="0 0 60 60" version="1.1">
<g id="surface1">
<path style=" stroke:none;fill-rule:nonzero;fill:rgb(0.392157%,92.54902%,39.215686%);fill-opacity:1;" d="M 8.722656 23.101562 C 8.210938 22.308594 7.769531 21.503906 7.683594 21.335938 C 7.671875 21.324219 7.660156 21.324219 7.648438 21.335938 C 7.558594 21.503906 7.117188 22.308594 6.605469 23.101562 C 2.21875 30.417969 7.296875 35.351562 7.296875 35.351562 L 7.339844 35.386719 C 7.378906 36.148438 7.472656 37.246094 7.472656 37.246094 L 7.851562 37.246094 C 7.851562 37.246094 7.949219 36.15625 7.984375 35.386719 L 8.027344 35.34375 C 8.03125 35.351562 13.113281 30.417969 8.722656 23.101562 Z M 7.664062 35.238281 C 7.664062 35.238281 7.433594 34.984375 7.375 34.855469 L 7.375 34.84375 L 7.648438 26.878906 C 7.648438 26.855469 7.675781 26.855469 7.675781 26.878906 L 7.949219 34.84375 L 7.949219 34.855469 C 7.890625 34.984375 7.664062 35.238281 7.664062 35.238281 Z M 7.664062 35.238281 "/>
<path style=" stroke:none;fill-rule:nonzero;fill:rgb(0%,11.764706%,16.862745%);fill-opacity:1;" d="M 17.171875 33.617188 L 15.054688 26.859375 L 15.050781 26.839844 L 13.402344 26.839844 L 13.402344 27.292969 L 13.667969 27.292969 C 13.75 27.292969 13.824219 27.339844 13.882812 27.414062 C 13.9375 27.488281 13.96875 27.585938 13.96875 27.691406 L 13.921875 34.492188 C 13.921875 34.703125 13.789062 34.878906 13.625 34.882812 L 13.355469 34.890625 L 13.355469 35.339844 L 14.960938 35.339844 L 14.960938 34.890625 L 14.792969 34.882812 C 14.632812 34.878906 14.5 34.703125 14.5 34.492188 L 14.5 28.085938 L 16.808594 35.339844 C 16.839844 35.445312 16.917969 35.511719 17.003906 35.511719 C 17.089844 35.511719 17.164062 35.445312 17.199219 35.339844 L 19.453125 28.246094 L 19.484375 34.492188 C 19.484375 34.707031 19.351562 34.882812 19.1875 34.890625 L 19.015625 34.890625 L 19.015625 35.339844 L 20.898438 35.339844 L 20.898438 34.890625 L 20.640625 34.890625 C 20.480469 34.890625 20.347656 34.710938 20.339844 34.5 L 20.328125 27.699219 C 20.328125 27.480469 20.460938 27.308594 20.621094 27.300781 L 20.898438 27.292969 L 20.898438 26.839844 L 19.292969 26.839844 Z M 31.9375 34.773438 C 31.886719 34.703125 31.855469 34.609375 31.855469 34.5 L 31.855469 31.15625 C 31.855469 30.523438 31.714844 30.023438 31.429688 29.667969 C 31.148438 29.3125 30.757812 29.132812 30.269531 29.132812 C 29.589844 29.132812 29.054688 29.492188 28.675781 30.203125 C 28.671875 30.21875 28.660156 30.222656 28.644531 30.222656 C 28.628906 30.222656 28.621094 30.210938 28.621094 30.191406 L 28.445312 29.300781 L 28.148438 29.300781 L 27.390625 29.867188 L 27.390625 30.179688 L 27.585938 30.179688 C 27.675781 30.179688 27.753906 30.210938 27.804688 30.273438 C 27.859375 30.335938 27.886719 30.429688 27.886719 30.558594 L 27.886719 34.492188 C 27.886719 34.601562 27.859375 34.695312 27.804688 34.765625 C 27.753906 34.832031 27.683594 34.871094 27.597656 34.871094 L 27.40625 34.871094 L 27.40625 35.324219 L 29.148438 35.324219 L 29.148438 34.871094 L 28.957031 34.871094 C 28.871094 34.871094 28.800781 34.832031 28.746094 34.765625 C 28.695312 34.695312 28.667969 34.601562 28.667969 34.492188 L 28.667969 31.886719 C 28.667969 31.558594 28.722656 31.226562 28.828125 30.902344 C 28.9375 30.585938 29.101562 30.316406 29.316406 30.113281 C 29.53125 29.90625 29.785156 29.804688 30.082031 29.804688 C 30.414062 29.804688 30.667969 29.945312 30.824219 30.21875 C 30.980469 30.492188 31.0625 30.847656 31.0625 31.269531 L 31.0625 34.488281 C 31.0625 34.597656 31.035156 34.691406 30.980469 34.761719 C 30.929688 34.828125 30.859375 34.867188 30.773438 34.867188 L 30.582031 34.867188 L 30.582031 35.320312 L 32.324219 35.320312 L 32.324219 34.867188 L 32.132812 34.867188 C 32.0625 34.878906 31.996094 34.839844 31.9375 34.773438 Z M 47.855469 27.347656 C 47.375 27.015625 46.835938 26.839844 46.257812 26.839844 L 43.988281 26.839844 L 43.988281 27.292969 L 44.210938 27.292969 C 44.296875 27.292969 44.371094 27.335938 44.449219 27.433594 C 44.519531 27.527344 44.554688 27.632812 44.554688 27.746094 L 44.554688 34.417969 C 44.554688 34.53125 44.519531 34.636719 44.449219 34.730469 C 44.378906 34.820312 44.296875 34.871094 44.210938 34.871094 L 43.988281 34.871094 L 43.988281 35.324219 L 46.257812 35.324219 C 46.835938 35.324219 47.375 35.152344 47.855469 34.816406 C 48.339844 34.480469 48.730469 33.984375 49.011719 33.351562 C 49.296875 32.71875 49.441406 31.957031 49.441406 31.089844 C 49.441406 30.21875 49.296875 29.464844 49.011719 28.824219 C 48.726562 28.179688 48.335938 27.691406 47.855469 27.347656 Z M 48.53125 31.078125 C 48.53125 31.871094 48.421875 32.539062 48.210938 33.078125 C 47.996094 33.621094 47.714844 34.023438 47.367188 34.285156 C 47.015625 34.542969 46.628906 34.675781 46.214844 34.675781 L 45.753906 34.675781 C 45.671875 34.675781 45.59375 34.628906 45.519531 34.53125 C 45.449219 34.4375 45.410156 34.332031 45.410156 34.222656 L 45.410156 27.925781 C 45.410156 27.8125 45.445312 27.714844 45.519531 27.617188 C 45.589844 27.523438 45.671875 27.472656 45.753906 27.472656 L 46.214844 27.472656 C 46.628906 27.472656 47.015625 27.601562 47.367188 27.863281 C 47.714844 28.125 47.996094 28.527344 48.210938 29.066406 C 48.421875 29.613281 48.53125 30.289062 48.53125 31.078125 Z M 54.800781 31.53125 C 54.589844 31.214844 54.1875 30.945312 53.710938 30.804688 C 54.367188 30.375 54.703125 29.773438 54.703125 29 C 54.703125 28.578125 54.617188 28.199219 54.449219 27.875 C 54.277344 27.554688 54.035156 27.292969 53.722656 27.113281 C 53.414062 26.933594 53.054688 26.839844 52.644531 26.839844 L 50.078125 26.839844 L 50.078125 27.292969 L 50.28125 27.292969 C 50.367188 27.292969 50.445312 27.335938 50.519531 27.433594 C 50.59375 27.527344 50.628906 27.632812 50.628906 27.746094 L 50.628906 34.417969 C 50.628906 34.53125 50.59375 34.636719 50.519531 34.730469 C 50.449219 34.820312 50.367188 34.871094 50.28125 34.871094 L 50.058594 34.871094 L 50.058594 35.324219 L 52.84375 35.324219 C 53.269531 35.324219 53.664062 35.230469 54.019531 35.046875 C 54.375 34.859375 54.660156 34.585938 54.867188 34.226562 C 55.078125 33.867188 55.179688 33.425781 55.179688 32.917969 C 55.175781 32.371094 55.050781 31.90625 54.800781 31.53125 Z M 51.605469 34.539062 C 51.535156 34.445312 51.496094 34.339844 51.496094 34.226562 L 51.496094 31.230469 L 52.820312 31.230469 C 53.285156 31.230469 53.644531 31.386719 53.890625 31.695312 C 54.140625 32.007812 54.261719 32.410156 54.261719 32.90625 C 54.261719 33.207031 54.203125 33.496094 54.101562 33.761719 C 53.992188 34.035156 53.828125 34.253906 53.609375 34.421875 C 53.394531 34.589844 53.128906 34.675781 52.820312 34.675781 L 51.84375 34.675781 C 51.757812 34.675781 51.679688 34.632812 51.605469 34.539062 Z M 51.5 30.59375 L 51.5 27.933594 C 51.5 27.820312 51.535156 27.722656 51.609375 27.625 C 51.679688 27.53125 51.761719 27.480469 51.847656 27.480469 L 52.476562 27.480469 C 52.929688 27.480469 53.261719 27.628906 53.472656 27.914062 C 53.679688 28.207031 53.785156 28.578125 53.785156 29.039062 C 53.785156 29.507812 53.683594 29.886719 53.488281 30.171875 C 53.292969 30.453125 53 30.59375 52.609375 30.59375 Z M 25.304688 29.527344 C 24.941406 29.269531 24.535156 29.132812 24.097656 29.132812 C 23.667969 29.132812 23.269531 29.257812 22.917969 29.507812 L 22.886719 29.527344 C 22.523438 29.789062 22.234375 30.164062 22.023438 30.640625 C 21.808594 31.117188 21.703125 31.675781 21.703125 32.292969 C 21.703125 32.910156 21.808594 33.464844 22.023438 33.941406 C 22.234375 34.417969 22.523438 34.796875 22.886719 35.054688 C 23.25 35.316406 23.65625 35.453125 24.097656 35.453125 C 24.523438 35.453125 24.925781 35.328125 25.277344 35.078125 L 25.304688 35.054688 C 25.667969 34.796875 25.957031 34.417969 26.167969 33.941406 C 26.382812 33.46875 26.492188 32.910156 26.492188 32.292969 C 26.492188 31.675781 26.382812 31.117188 26.167969 30.640625 C 25.957031 30.164062 25.667969 29.789062 25.304688 29.527344 Z M 25.65625 32.289062 C 25.65625 33.050781 25.511719 33.667969 25.230469 34.113281 C 24.949219 34.558594 24.570312 34.789062 24.097656 34.789062 C 23.632812 34.789062 23.253906 34.566406 22.976562 34.136719 L 22.964844 34.113281 C 22.679688 33.667969 22.539062 33.050781 22.539062 32.289062 C 22.539062 31.542969 22.675781 30.933594 22.949219 30.492188 L 22.964844 30.46875 C 23.242188 30.023438 23.625 29.792969 24.097656 29.792969 C 24.570312 29.792969 24.953125 30.023438 25.230469 30.46875 C 25.511719 30.914062 25.65625 31.53125 25.65625 32.289062 Z M 42.046875 29.527344 C 41.679688 29.269531 41.273438 29.132812 40.835938 29.132812 C 40.410156 29.132812 40.007812 29.257812 39.65625 29.507812 L 39.628906 29.527344 C 39.261719 29.789062 38.976562 30.164062 38.761719 30.640625 C 38.550781 31.117188 38.441406 31.675781 38.441406 32.292969 C 38.441406 32.910156 38.550781 33.464844 38.761719 33.941406 C 38.976562 34.417969 39.261719 34.796875 39.628906 35.054688 C 39.992188 35.316406 40.398438 35.453125 40.835938 35.453125 C 41.265625 35.453125 41.664062 35.328125 42.015625 35.078125 L 42.046875 35.054688 C 42.410156 34.796875 42.699219 34.417969 42.910156 33.941406 C 43.121094 33.46875 43.230469 32.910156 43.230469 32.292969 C 43.230469 31.675781 43.125 31.117188 42.910156 30.640625 C 42.695312 30.164062 42.402344 29.789062 42.046875 29.527344 Z M 42.394531 32.289062 C 42.394531 33.050781 42.253906 33.667969 41.96875 34.113281 C 41.691406 34.558594 41.308594 34.789062 40.835938 34.789062 C 40.371094 34.789062 39.996094 34.566406 39.71875 34.136719 L 39.703125 34.113281 C 39.421875 33.667969 39.277344 33.050781 39.277344 32.289062 C 39.277344 31.539062 39.414062 30.933594 39.6875 30.492188 L 39.703125 30.46875 C 39.984375 30.023438 40.367188 29.792969 40.835938 29.792969 C 41.308594 29.792969 41.691406 30.023438 41.96875 30.46875 C 42.246094 30.914062 42.394531 31.53125 42.394531 32.289062 Z M 35.292969 29.132812 C 34.914062 29.132812 34.566406 29.238281 34.253906 29.449219 C 33.9375 29.660156 33.691406 29.949219 33.515625 30.3125 C 33.339844 30.671875 33.246094 31.078125 33.246094 31.503906 C 33.246094 31.890625 33.316406 32.246094 33.453125 32.5625 C 33.585938 32.867188 33.765625 33.121094 33.996094 33.332031 L 33.3125 34.535156 C 33.226562 34.6875 33.21875 34.886719 33.28125 35.046875 C 33.347656 35.214844 33.46875 35.3125 33.613281 35.3125 L 33.808594 35.3125 C 33.625 35.472656 33.480469 35.660156 33.375 35.886719 L 33.359375 35.914062 C 33.238281 36.183594 33.175781 36.460938 33.175781 36.746094 C 33.175781 37.273438 33.347656 37.707031 33.695312 38.035156 L 33.710938 38.050781 C 34.0625 38.378906 34.558594 38.550781 35.179688 38.550781 C 35.613281 38.550781 36.027344 38.457031 36.402344 38.273438 C 36.773438 38.101562 37.074219 37.84375 37.300781 37.507812 L 37.320312 37.480469 C 37.554688 37.132812 37.675781 36.710938 37.675781 36.226562 C 37.675781 35.71875 37.53125 35.355469 37.199219 35.007812 C 36.914062 34.71875 36.464844 34.5625 35.910156 34.5625 L 34.007812 34.5625 C 34.003906 34.5625 34 34.558594 34 34.558594 L 33.996094 34.554688 C 33.996094 34.550781 33.992188 34.542969 33.996094 34.539062 L 34.492188 33.667969 C 34.625 33.75 34.746094 33.796875 34.855469 33.828125 C 34.972656 33.859375 35.101562 33.875 35.242188 33.875 C 35.640625 33.875 36.003906 33.769531 36.316406 33.554688 C 36.632812 33.34375 36.882812 33.058594 37.0625 32.691406 C 37.246094 32.332031 37.335938 31.929688 37.335938 31.5 C 37.335938 31.039062 37.164062 30.203125 36.699219 29.773438 C 36.699219 29.769531 36.699219 29.769531 36.703125 29.765625 L 37.726562 29.917969 L 37.726562 29.300781 L 36.089844 29.300781 C 35.835938 29.195312 35.570312 29.132812 35.292969 29.132812 Z M 35.867188 33.019531 C 35.683594 33.144531 35.488281 33.214844 35.292969 33.214844 C 34.976562 33.214844 34.695312 33.0625 34.457031 32.773438 C 34.21875 32.480469 34.101562 32.050781 34.101562 31.503906 C 34.101562 30.960938 34.21875 30.53125 34.457031 30.238281 C 34.695312 29.949219 34.976562 29.796875 35.292969 29.796875 C 35.488281 29.796875 35.667969 29.855469 35.84375 29.972656 L 35.867188 29.988281 C 36.046875 30.113281 36.195312 30.308594 36.3125 30.5625 C 36.425781 30.816406 36.488281 31.132812 36.488281 31.503906 C 36.488281 31.886719 36.433594 32.199219 36.3125 32.449219 C 36.199219 32.703125 36.046875 32.894531 35.867188 33.019531 Z M 34.574219 35.304688 L 35.867188 35.304688 C 36.222656 35.304688 36.449219 35.398438 36.601562 35.597656 C 36.753906 35.796875 36.832031 36.0625 36.832031 36.371094 C 36.832031 36.824219 36.695312 37.199219 36.417969 37.476562 C 36.140625 37.757812 35.769531 37.898438 35.3125 37.898438 C 34.914062 37.898438 34.582031 37.78125 34.339844 37.558594 C 34.097656 37.335938 33.972656 36.992188 33.972656 36.558594 C 33.972656 36.285156 34.03125 36.03125 34.144531 35.808594 C 34.257812 35.585938 34.394531 35.421875 34.574219 35.304688 Z M 34.574219 35.304688 "/>
</g>
</svg>
