<?xml version="1.0" encoding="UTF-8"?>
<svg xmlns="http://www.w3.org/2000/svg" xmlns:xlink="http://www.w3.org/1999/xlink" width="80px" height="80px" viewBox="0 0 80 80" version="1.1">
<g id="surface1">
<path style=" stroke:none;fill-rule:nonzero;fill:rgb(0.392157%,92.54902%,39.215686%);fill-opacity:1;" d="M 11.632812 30.800781 C 10.949219 29.746094 10.363281 28.671875 10.242188 28.449219 C 10.230469 28.433594 10.210938 28.433594 10.199219 28.449219 C 10.078125 28.671875 9.492188 29.746094 8.808594 30.800781 C 2.957031 40.554688 9.730469 47.136719 9.730469 47.136719 L 9.789062 47.183594 C 9.839844 48.199219 9.964844 49.660156 9.964844 49.660156 L 10.472656 49.660156 C 10.472656 49.660156 10.597656 48.210938 10.648438 47.183594 L 10.703125 47.125 C 10.710938 47.136719 17.484375 40.554688 11.632812 30.800781 Z M 10.214844 46.984375 C 10.214844 46.984375 9.914062 46.648438 9.832031 46.472656 L 9.832031 46.457031 L 10.195312 35.835938 C 10.195312 35.804688 10.234375 35.804688 10.234375 35.835938 L 10.601562 46.457031 L 10.601562 46.472656 C 10.519531 46.648438 10.214844 46.984375 10.214844 46.984375 Z M 10.214844 46.984375 "/>
<path style=" stroke:none;fill-rule:nonzero;fill:rgb(0%,11.764706%,16.862745%);fill-opacity:1;" d="M 22.898438 44.820312 L 20.074219 35.8125 L 20.066406 35.789062 L 17.871094 35.789062 L 17.871094 36.390625 L 18.222656 36.390625 C 18.332031 36.390625 18.433594 36.449219 18.507812 36.550781 C 18.585938 36.648438 18.621094 36.78125 18.621094 36.921875 L 18.558594 45.988281 C 18.558594 46.273438 18.382812 46.503906 18.167969 46.511719 L 17.808594 46.519531 L 17.808594 47.117188 L 19.949219 47.117188 L 19.949219 46.519531 L 19.726562 46.511719 C 19.511719 46.503906 19.332031 46.273438 19.332031 45.988281 L 19.332031 37.445312 L 22.410156 47.117188 C 22.457031 47.257812 22.554688 47.351562 22.671875 47.351562 C 22.785156 47.351562 22.886719 47.261719 22.929688 47.117188 L 25.9375 37.660156 L 25.980469 45.988281 C 25.980469 46.277344 25.804688 46.511719 25.582031 46.519531 L 25.355469 46.519531 L 25.355469 47.117188 L 27.863281 47.117188 L 27.863281 46.519531 L 27.519531 46.519531 C 27.304688 46.519531 27.128906 46.28125 27.121094 45.996094 L 27.101562 36.933594 C 27.101562 36.640625 27.28125 36.410156 27.496094 36.402344 L 27.863281 36.390625 L 27.863281 35.789062 L 25.722656 35.789062 Z M 42.582031 46.363281 C 42.515625 46.273438 42.476562 46.144531 42.476562 45.996094 L 42.476562 41.542969 C 42.476562 40.695312 42.285156 40.03125 41.902344 39.558594 C 41.527344 39.085938 41.011719 38.84375 40.363281 38.84375 C 39.453125 38.84375 38.738281 39.324219 38.234375 40.273438 C 38.230469 40.289062 38.210938 40.296875 38.191406 40.296875 C 38.171875 40.296875 38.160156 40.28125 38.160156 40.257812 L 37.925781 39.066406 L 37.53125 39.066406 L 36.523438 39.824219 L 36.523438 40.238281 L 36.78125 40.238281 C 36.902344 40.238281 37.003906 40.28125 37.074219 40.363281 C 37.144531 40.449219 37.183594 40.570312 37.183594 40.746094 L 37.183594 45.988281 C 37.183594 46.136719 37.144531 46.261719 37.074219 46.355469 C 37.007812 46.445312 36.910156 46.496094 36.796875 46.496094 L 36.542969 46.496094 L 36.542969 47.101562 L 38.863281 47.101562 L 38.863281 46.496094 L 38.609375 46.496094 C 38.496094 46.496094 38.398438 46.445312 38.332031 46.355469 C 38.261719 46.261719 38.222656 46.136719 38.222656 45.988281 L 38.222656 42.515625 C 38.222656 42.078125 38.300781 41.636719 38.4375 41.203125 C 38.585938 40.78125 38.800781 40.421875 39.085938 40.148438 C 39.375 39.875 39.714844 39.742188 40.109375 39.742188 C 40.554688 39.742188 40.890625 39.925781 41.097656 40.289062 C 41.308594 40.65625 41.417969 41.128906 41.417969 41.695312 L 41.417969 45.980469 C 41.417969 46.132812 41.378906 46.257812 41.308594 46.347656 C 41.238281 46.4375 41.144531 46.488281 41.03125 46.488281 L 40.773438 46.488281 L 40.773438 47.09375 L 43.097656 47.09375 L 43.097656 46.488281 L 42.84375 46.488281 C 42.75 46.503906 42.660156 46.453125 42.582031 46.363281 Z M 63.808594 36.464844 C 63.164062 36.019531 62.449219 35.789062 61.675781 35.789062 L 58.652344 35.789062 L 58.652344 36.390625 L 58.949219 36.390625 C 59.0625 36.390625 59.164062 36.449219 59.265625 36.582031 C 59.359375 36.703125 59.410156 36.847656 59.410156 36.992188 L 59.410156 45.894531 C 59.410156 46.042969 59.359375 46.183594 59.265625 46.304688 C 59.167969 46.429688 59.0625 46.496094 58.949219 46.496094 L 58.652344 46.496094 L 58.652344 47.097656 L 61.675781 47.097656 C 62.449219 47.097656 63.167969 46.867188 63.808594 46.421875 C 64.449219 45.972656 64.972656 45.3125 65.351562 44.46875 C 65.730469 43.625 65.925781 42.609375 65.925781 41.449219 C 65.925781 40.292969 65.730469 39.285156 65.351562 38.433594 C 64.964844 37.574219 64.449219 36.917969 63.808594 36.464844 Z M 64.707031 41.433594 C 64.707031 42.496094 64.5625 43.386719 64.28125 44.105469 C 63.996094 44.824219 63.621094 45.363281 63.152344 45.710938 C 62.6875 46.058594 62.171875 46.230469 61.617188 46.230469 L 61.007812 46.230469 C 60.894531 46.230469 60.792969 46.175781 60.691406 46.042969 C 60.597656 45.917969 60.546875 45.777344 60.546875 45.628906 L 60.546875 37.234375 C 60.546875 37.085938 60.59375 36.953125 60.691406 36.820312 C 60.785156 36.695312 60.894531 36.628906 61.007812 36.628906 L 61.617188 36.628906 C 62.171875 36.628906 62.6875 36.804688 63.152344 37.152344 C 63.621094 37.5 63.996094 38.035156 64.28125 38.757812 C 64.5625 39.484375 64.707031 40.386719 64.707031 41.433594 Z M 73.066406 42.039062 C 72.785156 41.617188 72.246094 41.261719 71.613281 41.074219 C 72.488281 40.5 72.9375 39.699219 72.9375 38.664062 C 72.9375 38.105469 72.824219 37.597656 72.597656 37.167969 C 72.367188 36.738281 72.042969 36.390625 71.632812 36.152344 C 71.21875 35.910156 70.738281 35.789062 70.191406 35.789062 L 66.769531 35.789062 L 66.769531 36.390625 L 67.042969 36.390625 C 67.15625 36.390625 67.257812 36.449219 67.359375 36.582031 C 67.457031 36.703125 67.507812 36.847656 67.507812 36.992188 L 67.507812 45.894531 C 67.507812 46.042969 67.457031 46.183594 67.359375 46.304688 C 67.265625 46.429688 67.15625 46.496094 67.042969 46.496094 L 66.746094 46.496094 L 66.746094 47.097656 L 70.460938 47.097656 C 71.023438 47.097656 71.550781 46.976562 72.027344 46.726562 C 72.503906 46.480469 72.882812 46.117188 73.15625 45.636719 C 73.4375 45.15625 73.574219 44.570312 73.574219 43.890625 C 73.566406 43.164062 73.402344 42.542969 73.066406 42.039062 Z M 68.808594 46.050781 C 68.710938 45.925781 68.664062 45.785156 68.664062 45.636719 L 68.664062 41.644531 L 70.425781 41.644531 C 71.046875 41.644531 71.523438 41.851562 71.855469 42.261719 C 72.183594 42.675781 72.347656 43.214844 72.347656 43.875 C 72.347656 44.273438 72.273438 44.664062 72.132812 45.015625 C 71.988281 45.378906 71.773438 45.671875 71.480469 45.894531 C 71.195312 46.117188 70.839844 46.234375 70.425781 46.234375 L 69.125 46.234375 C 69.011719 46.234375 68.910156 46.175781 68.808594 46.050781 Z M 68.667969 40.792969 L 68.667969 37.242188 C 68.667969 37.09375 68.710938 36.960938 68.8125 36.832031 C 68.910156 36.707031 69.015625 36.640625 69.128906 36.640625 L 69.96875 36.640625 C 70.570312 36.640625 71.015625 36.839844 71.292969 37.21875 C 71.574219 37.609375 71.710938 38.105469 71.710938 38.71875 C 71.710938 39.34375 71.578125 39.847656 71.320312 40.230469 C 71.058594 40.601562 70.664062 40.792969 70.144531 40.792969 Z M 33.742188 39.371094 C 33.253906 39.023438 32.714844 38.84375 32.128906 38.84375 C 31.558594 38.84375 31.023438 39.007812 30.554688 39.34375 L 30.515625 39.371094 C 30.03125 39.71875 29.648438 40.222656 29.363281 40.855469 C 29.082031 41.492188 28.933594 42.230469 28.933594 43.054688 C 28.933594 43.878906 29.078125 44.621094 29.363281 45.257812 C 29.648438 45.894531 30.03125 46.394531 30.515625 46.742188 C 31.003906 47.085938 31.542969 47.269531 32.128906 47.269531 C 32.699219 47.269531 33.234375 47.105469 33.703125 46.769531 L 33.742188 46.742188 C 34.226562 46.394531 34.609375 45.890625 34.894531 45.257812 C 35.175781 44.625 35.320312 43.878906 35.320312 43.054688 C 35.320312 42.230469 35.175781 41.492188 34.894531 40.855469 C 34.609375 40.21875 34.226562 39.71875 33.742188 39.371094 Z M 34.207031 43.054688 C 34.207031 44.070312 34.015625 44.890625 33.640625 45.484375 C 33.269531 46.078125 32.757812 46.382812 32.128906 46.382812 C 31.507812 46.382812 31.007812 46.089844 30.636719 45.515625 L 30.617188 45.484375 C 30.238281 44.890625 30.050781 44.066406 30.050781 43.054688 C 30.050781 42.058594 30.234375 41.246094 30.597656 40.65625 L 30.617188 40.625 C 30.988281 40.03125 31.5 39.726562 32.128906 39.726562 C 32.757812 39.726562 33.269531 40.03125 33.640625 40.625 C 34.015625 41.214844 34.207031 42.039062 34.207031 43.054688 Z M 56.058594 39.371094 C 55.574219 39.023438 55.035156 38.84375 54.449219 38.84375 C 53.878906 38.84375 53.34375 39.007812 52.875 39.34375 L 52.835938 39.371094 C 52.351562 39.71875 51.96875 40.222656 51.683594 40.855469 C 51.402344 41.492188 51.253906 42.230469 51.253906 43.054688 C 51.253906 43.878906 51.398438 44.621094 51.683594 45.257812 C 51.96875 45.894531 52.351562 46.394531 52.835938 46.742188 C 53.320312 47.085938 53.863281 47.269531 54.449219 47.269531 C 55.019531 47.269531 55.554688 47.105469 56.023438 46.769531 L 56.058594 46.742188 C 56.546875 46.394531 56.929688 45.890625 57.214844 45.257812 C 57.496094 44.625 57.640625 43.878906 57.640625 43.054688 C 57.640625 42.230469 57.496094 41.492188 57.214844 40.855469 C 56.929688 40.21875 56.539062 39.71875 56.058594 39.371094 Z M 56.527344 43.054688 C 56.527344 44.070312 56.335938 44.890625 55.960938 45.484375 C 55.589844 46.078125 55.078125 46.382812 54.449219 46.382812 C 53.828125 46.382812 53.328125 46.089844 52.957031 45.515625 L 52.9375 45.484375 C 52.558594 44.890625 52.371094 44.066406 52.371094 43.054688 C 52.371094 42.050781 52.554688 41.246094 52.917969 40.65625 L 52.9375 40.625 C 53.308594 40.03125 53.820312 39.726562 54.449219 39.726562 C 55.078125 39.726562 55.589844 40.03125 55.960938 40.625 C 56.332031 41.214844 56.527344 42.039062 56.527344 43.054688 Z M 47.058594 38.84375 C 46.550781 38.84375 46.085938 38.984375 45.667969 39.265625 C 45.25 39.550781 44.921875 39.929688 44.6875 40.417969 C 44.449219 40.898438 44.332031 41.4375 44.332031 42.007812 C 44.332031 42.523438 44.417969 42.992188 44.601562 43.414062 C 44.78125 43.820312 45.023438 44.160156 45.324219 44.441406 L 44.417969 46.046875 C 44.304688 46.246094 44.292969 46.511719 44.375 46.726562 C 44.464844 46.953125 44.625 47.082031 44.820312 47.082031 L 45.078125 47.082031 C 44.835938 47.296875 44.640625 47.550781 44.5 47.847656 L 44.480469 47.886719 C 44.316406 48.242188 44.234375 48.613281 44.234375 48.996094 C 44.234375 49.695312 44.464844 50.277344 44.925781 50.710938 L 44.949219 50.734375 C 45.417969 51.175781 46.078125 51.398438 46.910156 51.398438 C 47.484375 51.398438 48.039062 51.273438 48.539062 51.035156 C 49.03125 50.800781 49.433594 50.457031 49.738281 50.011719 L 49.761719 49.972656 C 50.074219 49.507812 50.230469 48.949219 50.230469 48.300781 C 50.230469 47.625 50.042969 47.140625 49.597656 46.679688 C 49.21875 46.289062 48.621094 46.082031 47.878906 46.082031 L 45.339844 46.082031 C 45.335938 46.082031 45.332031 46.078125 45.332031 46.078125 L 45.328125 46.074219 L 45.328125 46.070312 C 45.324219 46.066406 45.324219 46.054688 45.328125 46.050781 L 45.988281 44.890625 C 46.164062 45 46.332031 45.0625 46.476562 45.105469 C 46.628906 45.148438 46.800781 45.164062 46.988281 45.164062 C 47.523438 45.164062 48.003906 45.023438 48.421875 44.742188 C 48.84375 44.460938 49.179688 44.078125 49.417969 43.589844 C 49.660156 43.109375 49.78125 42.570312 49.78125 42 C 49.78125 41.386719 49.554688 40.269531 48.929688 39.699219 C 48.929688 39.695312 48.933594 39.691406 48.933594 39.691406 L 48.9375 39.691406 L 50.300781 39.886719 L 50.300781 39.066406 L 48.121094 39.066406 C 47.78125 38.925781 47.425781 38.84375 47.058594 38.84375 Z M 47.820312 44.027344 C 47.578125 44.195312 47.320312 44.285156 47.058594 44.285156 C 46.632812 44.285156 46.261719 44.085938 45.945312 43.695312 C 45.625 43.308594 45.46875 42.734375 45.46875 42.007812 C 45.46875 41.28125 45.625 40.707031 45.945312 40.320312 C 46.261719 39.929688 46.632812 39.730469 47.058594 39.730469 C 47.316406 39.730469 47.558594 39.804688 47.789062 39.964844 L 47.820312 39.984375 C 48.0625 40.152344 48.257812 40.410156 48.417969 40.75 C 48.570312 41.085938 48.652344 41.511719 48.652344 42.007812 C 48.652344 42.511719 48.574219 42.933594 48.417969 43.265625 C 48.261719 43.605469 48.058594 43.859375 47.820312 44.027344 Z M 46.101562 47.074219 L 47.820312 47.074219 C 48.296875 47.074219 48.601562 47.199219 48.804688 47.460938 C 49.007812 47.726562 49.109375 48.082031 49.109375 48.496094 C 49.109375 49.101562 48.925781 49.597656 48.554688 49.96875 C 48.1875 50.34375 47.691406 50.535156 47.085938 50.535156 C 46.550781 50.535156 46.109375 50.375 45.785156 50.078125 C 45.460938 49.78125 45.296875 49.324219 45.296875 48.746094 C 45.296875 48.378906 45.375 48.042969 45.523438 47.742188 C 45.675781 47.445312 45.859375 47.230469 46.101562 47.074219 Z M 46.101562 47.074219 "/>
</g>
</svg>
