<?xml version="1.0" encoding="UTF-8"?>
<svg xmlns="http://www.w3.org/2000/svg" xmlns:xlink="http://www.w3.org/1999/xlink" width="60px" height="60px" viewBox="0 0 60 60" version="1.1">
<g id="surface1">
<path style=" stroke:none;fill-rule:nonzero;fill:rgb(51.372549%,80.392157%,16.078431%);fill-opacity:1;" d="M 52.289062 24.195312 C 52.160156 24.195312 52.035156 24.265625 51.921875 24.433594 L 48.421875 29.855469 C 48.195312 30.207031 48.058594 30.867188 48.058594 31.570312 L 48.058594 42.398438 C 48.058594 43.101562 48.195312 43.761719 48.421875 44.113281 L 49.335938 45.527344 C 49.78125 46.113281 49.945312 46.105469 50.148438 46.105469 C 50.804688 46.105469 51.179688 45.035156 51.179688 43.171875 L 51.179688 32.492188 C 51.179688 32.339844 51.132812 32.234375 51.074219 32.234375 L 50.636719 32.234375 C 50.582031 32.234375 50.535156 32.34375 50.535156 32.492188 L 50.535156 43.179688 C 50.535156 44.003906 50.214844 44.832031 49.695312 44.136719 L 48.742188 42.640625 C 48.710938 42.59375 48.683594 42.503906 48.683594 42.402344 L 48.683594 31.574219 C 48.683594 31.472656 48.710938 31.367188 48.742188 31.316406 L 52.238281 25.910156 C 52.269531 25.859375 52.308594 25.859375 52.339844 25.910156 L 55.832031 31.316406 C 55.867188 31.367188 55.890625 31.46875 55.890625 31.574219 L 55.890625 42.402344 C 55.890625 42.503906 55.875 42.609375 55.839844 42.660156 L 52.339844 48.066406 C 52.308594 48.113281 52.269531 48.113281 52.238281 48.066406 L 51.335938 46.628906 C 51.308594 46.585938 51.273438 46.589844 51.25 46.628906 C 51 47.007812 50.953125 47.050781 50.71875 47.265625 C 50.664062 47.320312 50.574219 47.402344 50.75 47.667969 L 51.925781 49.523438 C 52.035156 49.695312 52.160156 49.78125 52.289062 49.78125 C 52.417969 49.78125 52.539062 49.699219 52.652344 49.523438 L 56.152344 44.121094 C 56.378906 43.765625 56.515625 43.109375 56.515625 42.40625 L 56.515625 31.578125 C 56.515625 30.875 56.378906 30.214844 56.152344 29.863281 L 52.652344 24.4375 C 52.542969 24.269531 52.417969 24.199219 52.289062 24.199219 Z M 53.222656 31.929688 C 52.226562 31.929688 51.632812 33.070312 51.632812 34.960938 C 51.632812 37.011719 52.222656 37.578125 53.179688 37.832031 C 54.324219 38.132812 54.414062 38.585938 54.414062 39.1875 C 54.414062 40.238281 54.101562 40.683594 53.363281 40.683594 C 52.441406 40.683594 52.238281 40.0625 52.167969 38.828125 C 52.160156 38.695312 52.121094 38.589844 52.070312 38.589844 L 51.617188 38.589844 C 51.5625 38.589844 51.515625 38.714844 51.511719 38.867188 C 51.511719 40.449219 51.832031 42.316406 53.363281 42.316406 C 54.472656 42.316406 55.109375 41.152344 55.109375 39.105469 C 55.109375 37.082031 54.59375 36.535156 53.519531 36.15625 C 52.433594 35.765625 52.332031 35.582031 52.332031 34.898438 C 52.332031 34.335938 52.417969 33.582031 53.222656 33.582031 C 53.941406 33.582031 54.207031 33.996094 54.316406 35.296875 C 54.324219 35.417969 54.363281 35.519531 54.410156 35.519531 L 54.867188 35.519531 C 54.894531 35.519531 54.921875 35.472656 54.941406 35.417969 C 54.960938 35.363281 54.972656 35.296875 54.96875 35.21875 C 54.898438 32.980469 54.34375 31.929688 53.222656 31.929688 Z M 53.222656 31.929688 "/>
<path style=" stroke:none;fill-rule:nonzero;fill:rgb(25.098039%,25.490196%,21.568627%);fill-opacity:1;" d="M 31.710938 10 C 31.671875 10 31.632812 10.027344 31.601562 10.078125 C 31.53125 10.1875 31.488281 10.386719 31.488281 10.597656 L 31.488281 25.851562 C 31.488281 26 31.460938 26.136719 31.414062 26.210938 C 31.367188 26.285156 31.304688 26.285156 31.257812 26.210938 L 30.328125 24.777344 C 30.191406 24.5625 30.019531 24.5625 29.882812 24.777344 L 26.175781 30.519531 C 26.035156 30.734375 25.953125 31.144531 25.953125 31.574219 L 25.953125 43.058594 C 25.953125 43.488281 26.035156 43.882812 26.175781 44.097656 L 29.882812 49.839844 C 30.019531 50.054688 30.191406 50.054688 30.328125 49.839844 L 34.035156 44.097656 C 34.175781 43.882812 34.261719 43.488281 34.261719 43.058594 L 34.261719 14.425781 C 34.261719 13.992188 34.171875 13.582031 34.03125 13.371094 L 31.824219 10.058594 C 31.789062 10.007812 31.75 10 31.710938 10 Z M 7.859375 24.335938 C 7.789062 24.34375 7.722656 24.378906 7.65625 24.476562 L 3.949219 30.21875 C 3.8125 30.433594 3.726562 30.828125 3.726562 31.253906 L 3.734375 46.667969 C 3.734375 46.882812 3.777344 47.082031 3.847656 47.1875 C 3.914062 47.296875 4 47.296875 4.070312 47.1875 L 6.269531 43.796875 C 6.40625 43.574219 6.5 43.1875 6.5 42.761719 L 6.5 35.5625 C 6.5 35.132812 6.582031 34.738281 6.722656 34.527344 L 7.65625 33.070312 C 7.726562 32.964844 7.800781 32.910156 7.878906 32.910156 C 7.960938 32.910156 8.035156 32.964844 8.105469 33.070312 L 9.039062 34.523438 C 9.179688 34.738281 9.261719 35.132812 9.261719 35.5625 L 9.261719 42.761719 C 9.261719 43.1875 9.355469 43.578125 9.492188 43.796875 L 11.691406 47.1875 C 11.761719 47.296875 11.847656 47.296875 11.914062 47.1875 C 11.984375 47.082031 12.027344 46.882812 12.027344 46.667969 L 12.035156 31.253906 C 12.035156 30.828125 11.949219 30.429688 11.8125 30.21875 L 8.101562 24.476562 C 8.039062 24.378906 7.972656 24.34375 7.902344 24.335938 Z M 41.179688 24.476562 C 41.101562 24.476562 41.023438 24.53125 40.957031 24.636719 L 37.246094 30.378906 C 37.109375 30.59375 37.023438 30.984375 37.023438 31.414062 L 37.023438 42.898438 C 37.023438 43.332031 37.113281 43.722656 37.253906 43.9375 L 40.933594 49.5625 C 41.070312 49.769531 41.234375 49.785156 41.371094 49.582031 L 43.601562 46.25 C 43.671875 46.144531 43.71875 45.949219 43.71875 45.734375 C 43.71875 45.515625 43.675781 45.324219 43.609375 45.214844 L 39.878906 39.472656 C 39.808594 39.367188 39.757812 39.148438 39.757812 38.933594 L 39.757812 35.34375 C 39.757812 35.128906 39.808594 34.929688 39.878906 34.824219 L 41.035156 33.03125 C 41.105469 32.921875 41.191406 32.921875 41.257812 33.03125 L 42.417969 34.824219 C 42.488281 34.929688 42.53125 35.128906 42.53125 35.34375 L 42.53125 38.175781 C 42.53125 38.386719 42.574219 38.585938 42.640625 38.691406 C 42.710938 38.800781 42.796875 38.800781 42.863281 38.691406 L 45.085938 35.222656 C 45.222656 35.007812 45.308594 34.613281 45.308594 34.1875 L 45.308594 31.414062 C 45.308594 30.988281 45.226562 30.59375 45.085938 30.378906 L 41.402344 24.636719 C 41.332031 24.53125 41.257812 24.476562 41.179688 24.476562 Z M 30.089844 33.050781 C 30.113281 33.050781 30.132812 33.0625 30.152344 33.089844 L 31.421875 35.0625 C 31.457031 35.117188 31.480469 35.214844 31.480469 35.324219 L 31.480469 39.269531 C 31.480469 39.378906 31.457031 39.476562 31.421875 39.53125 L 30.152344 41.503906 C 30.117188 41.558594 30.074219 41.558594 30.039062 41.503906 L 28.769531 39.53125 C 28.734375 39.476562 28.710938 39.378906 28.710938 39.269531 L 28.710938 35.324219 C 28.710938 35.214844 28.734375 35.117188 28.769531 35.0625 L 30.039062 33.089844 C 30.054688 33.0625 30.070312 33.050781 30.089844 33.050781 Z M 30.089844 33.050781 "/>
<path style=" stroke:none;fill-rule:nonzero;fill:rgb(51.372549%,80.392157%,16.078431%);fill-opacity:1;" d="M 18.996094 24.417969 C 18.917969 24.414062 18.84375 24.472656 18.773438 24.574219 L 15.066406 30.296875 C 14.925781 30.511719 14.84375 30.925781 14.84375 31.355469 L 14.84375 42.839844 C 14.84375 43.269531 14.929688 43.664062 15.066406 43.875 L 18.773438 49.621094 C 18.910156 49.835938 19.082031 49.835938 19.21875 49.621094 L 22.929688 43.875 C 23.066406 43.664062 23.152344 43.269531 23.152344 42.839844 L 23.152344 31.355469 C 23.152344 30.925781 23.066406 30.511719 22.925781 30.296875 L 19.21875 24.574219 C 19.152344 24.46875 19.074219 24.414062 18.996094 24.414062 Z M 41.171875 34.664062 C 41.15625 34.664062 41.140625 34.664062 41.125 34.683594 L 40.414062 35.800781 C 40.386719 35.839844 40.367188 35.917969 40.367188 36 L 40.367188 38.195312 C 40.367188 38.277344 40.386719 38.351562 40.414062 38.394531 L 41.125 39.492188 C 41.152344 39.53125 41.183594 39.53125 41.207031 39.492188 L 41.921875 38.394531 C 41.949219 38.351562 41.964844 38.277344 41.964844 38.195312 L 41.964844 36 C 41.964844 35.917969 41.949219 35.84375 41.921875 35.800781 L 41.207031 34.683594 C 41.195312 34.664062 41.183594 34.664062 41.171875 34.664062 Z M 41.171875 34.664062 "/>
</g>
</svg>
