<?xml version="1.0" encoding="UTF-8"?>
<svg xmlns="http://www.w3.org/2000/svg" xmlns:xlink="http://www.w3.org/1999/xlink" width="60px" height="60px" viewBox="0 0 60 60" version="1.1">
<g id="surface1">
<path style=" stroke:none;fill-rule:nonzero;fill:rgb(39.607843%,38.823529%,100%);fill-opacity:1;" d="M 53.90625 31.128906 C 53.511719 30.726562 53.097656 30.324219 52.65625 29.917969 C 52.964844 29.632812 53.257812 29.347656 53.546875 29.058594 C 58.945312 23.648438 61.222656 18.21875 59.113281 14.957031 C 57.085938 11.828125 51.0625 10.894531 43.519531 12.203125 C 42.777344 12.332031 42.039062 12.480469 41.304688 12.640625 C 41.160156 12.210938 41.011719 11.78125 40.855469 11.351562 C 38.296875 4.46875 34.164062 -0.00390625 29.941406 0 C 25.890625 0 21.976562 4.191406 19.476562 10.671875 C 19.230469 11.316406 19.003906 11.957031 18.792969 12.605469 C 18.300781 12.5 17.808594 12.398438 17.3125 12.304688 C 9.355469 10.851562 2.949219 11.808594 0.839844 15.078125 C -1.179688 18.207031 0.933594 23.328125 5.980469 28.492188 C 6.480469 29.003906 7 29.503906 7.527344 29.992188 C 6.902344 30.5625 6.316406 31.136719 5.761719 31.707031 C 0.835938 36.800781 -1.15625 41.835938 0.859375 44.953125 C 2.945312 48.175781 9.261719 49.226562 16.953125 47.878906 C 17.578125 47.769531 18.195312 47.644531 18.8125 47.507812 C 19.035156 48.210938 19.285156 48.90625 19.558594 49.597656 C 22.046875 55.945312 25.9375 60 29.972656 60 C 34.144531 60 38.316406 55.640625 40.851562 49.023438 C 41.054688 48.5 41.242188 47.957031 41.421875 47.398438 C 42.214844 47.578125 43.019531 47.730469 43.824219 47.867188 C 51.234375 49.117188 57.117188 48.136719 59.128906 45.019531 C 61.214844 41.792969 59.0625 36.390625 53.90625 31.128906 Z M 3.328125 16.355469 C 4.628906 14.34375 9.863281 13.558594 16.734375 14.820312 C 17.171875 14.898438 17.621094 14.988281 18.078125 15.089844 C 17.40625 17.734375 16.933594 20.417969 16.660156 23.125 C 14.179688 24.679688 11.820312 26.375 9.585938 28.203125 C 9.09375 27.75 8.617188 27.28125 8.152344 26.804688 C 3.820312 22.382812 2.113281 18.242188 3.328125 16.355469 Z M 16.402344 33.539062 C 14.6875 32.378906 13.085938 31.191406 11.640625 29.996094 C 13.085938 28.808594 14.683594 27.625 16.398438 26.46875 C 16.335938 27.648438 16.304688 28.824219 16.304688 30.007812 C 16.308594 31.183594 16.339844 32.363281 16.402344 33.539062 Z M 16.402344 45.359375 C 13.484375 45.941406 10.476562 46.035156 7.523438 45.640625 C 5.886719 45.527344 4.375 44.816406 3.347656 43.671875 C 2.121094 41.78125 3.71875 37.734375 7.933594 33.378906 C 8.464844 32.832031 9.011719 32.300781 9.578125 31.785156 C 11.808594 33.621094 14.179688 35.324219 16.664062 36.882812 C 16.941406 39.621094 17.417969 42.339844 18.09375 45.019531 C 17.53125 45.148438 16.96875 45.257812 16.394531 45.363281 Z M 40.28125 21.242188 C 39.152344 20.609375 38.011719 19.996094 36.859375 19.402344 C 35.71875 18.820312 34.570312 18.257812 33.40625 17.714844 C 35.402344 16.964844 37.359375 16.328125 39.253906 15.808594 C 39.699219 17.605469 40.042969 19.417969 40.28125 21.242188 Z M 22.195312 11.507812 C 24.335938 5.953125 27.507812 2.566406 29.945312 2.566406 C 32.546875 2.5625 35.921875 6.21875 38.132812 12.15625 C 38.277344 12.542969 38.410156 12.933594 38.535156 13.324219 C 35.632812 14.128906 32.796875 15.101562 30.039062 16.238281 C 27.292969 15.085938 24.464844 14.105469 21.566406 13.292969 C 21.761719 12.691406 21.96875 12.097656 22.195312 11.507812 Z M 20.851562 15.777344 C 22.828125 16.332031 24.769531 16.976562 26.671875 17.703125 C 24.3125 18.789062 22.015625 19.96875 19.78125 21.246094 C 20.050781 19.332031 20.410156 17.5 20.851562 15.777344 Z M 19.789062 38.757812 C 20.902344 39.394531 22.03125 40.007812 23.179688 40.597656 C 24.351562 41.195312 25.535156 41.773438 26.734375 42.324219 C 24.816406 43.078125 22.863281 43.742188 20.867188 44.316406 C 20.40625 42.480469 20.046875 40.628906 19.789062 38.757812 Z M 38.132812 48.195312 C 37.238281 50.734375 35.828125 53.109375 33.96875 55.195312 C 33.042969 56.40625 31.59375 57.214844 29.976562 57.441406 C 27.523438 57.441406 24.398438 54.1875 22.273438 48.753906 C 22.019531 48.113281 21.789062 47.460938 21.578125 46.808594 C 24.488281 45.972656 27.328125 44.957031 30.089844 43.78125 C 32.871094 44.925781 35.730469 45.90625 38.65625 46.714844 C 38.496094 47.210938 38.320312 47.707031 38.132812 48.195312 Z M 39.351562 44.222656 C 37.4375 43.695312 35.453125 43.046875 33.425781 42.285156 C 34.570312 41.753906 35.714844 41.1875 36.875 40.589844 C 38.0625 39.976562 39.21875 39.351562 40.34375 38.710938 C 40.121094 40.5625 39.789062 42.402344 39.351562 44.222656 Z M 40.855469 29.996094 C 40.855469 31.816406 40.792969 33.636719 40.664062 35.453125 C 39.003906 36.457031 37.253906 37.433594 35.4375 38.371094 C 33.621094 39.304688 31.824219 40.164062 30.066406 40.9375 C 28.210938 40.144531 26.394531 39.292969 24.613281 38.378906 C 22.839844 37.464844 21.109375 36.5 19.417969 35.46875 C 19.261719 33.648438 19.183594 31.828125 19.183594 30.003906 C 19.183594 28.183594 19.257812 26.363281 19.414062 24.542969 C 22.792969 22.480469 26.34375 20.652344 30.035156 19.070312 C 31.863281 19.863281 33.660156 20.71875 35.425781 21.625 C 37.199219 22.535156 38.9375 23.492188 40.636719 24.503906 C 40.785156 26.328125 40.855469 28.160156 40.855469 29.996094 Z M 44.070312 14.714844 C 50.535156 13.597656 55.40625 14.347656 56.628906 16.238281 C 57.929688 18.246094 56.066406 22.679688 51.398438 27.355469 C 51.140625 27.613281 50.875 27.871094 50.597656 28.132812 C 48.324219 26.300781 45.917969 24.605469 43.386719 23.066406 C 43.132812 20.394531 42.679688 17.738281 42.027344 15.117188 C 42.722656 14.96875 43.402344 14.832031 44.070312 14.714844 Z M 43.632812 26.371094 C 45.339844 27.480469 46.980469 28.671875 48.550781 29.933594 C 46.988281 31.214844 45.351562 32.425781 43.648438 33.558594 C 43.699219 32.371094 43.726562 31.183594 43.726562 29.996094 C 43.726562 28.785156 43.695312 27.578125 43.632812 26.371094 Z M 56.644531 43.738281 C 55.421875 45.628906 50.699219 46.421875 44.359375 45.351562 C 43.632812 45.230469 42.890625 45.085938 42.125 44.914062 C 42.761719 42.261719 43.199219 39.574219 43.429688 36.867188 C 45.953125 35.300781 48.355469 33.582031 50.613281 31.722656 C 51.011719 32.089844 51.386719 32.453125 51.742188 32.8125 C 53.765625 34.773438 55.363281 37.050781 56.464844 39.527344 C 57.175781 40.847656 57.242188 42.375 56.644531 43.738281 Z M 26.984375 25.316406 C 24.113281 26.796875 23.128906 30.070312 24.789062 32.632812 C 26.445312 35.195312 30.121094 36.074219 32.992188 34.59375 C 35.863281 33.113281 36.847656 29.839844 35.191406 27.277344 C 33.535156 24.714844 29.859375 23.832031 26.984375 25.316406 C 26.988281 25.3125 26.984375 25.3125 26.984375 25.316406 Z M 26.984375 25.316406 "/>
</g>
</svg>
