<?xml version="1.0" encoding="UTF-8"?>
<svg xmlns="http://www.w3.org/2000/svg" xmlns:xlink="http://www.w3.org/1999/xlink" width="60px" height="60px" viewBox="0 0 60 60" version="1.1">
<g id="surface1">
<path style=" stroke:none;fill-rule:nonzero;fill:rgb(94.117647%,31.764706%,21.960784%);fill-opacity:1;" d="M 59.933594 16.507812 C 59.933594 15.316406 59.804688 14.128906 59.554688 12.964844 C 59.085938 10.570312 57.839844 8.375 55.992188 6.683594 C 55.042969 5.796875 53.953125 5.082031 52.761719 4.566406 C 51.59375 4.003906 50.351562 3.628906 49.066406 3.421875 C 47.796875 3.1875 46.394531 3.1875 45.125 3.078125 L 13.765625 3.078125 C 12.789062 3.09375 11.816406 3.171875 10.847656 3.3125 C 9.886719 3.417969 8.941406 3.648438 8.035156 4.003906 L 7.144531 4.347656 C 6.296875 4.773438 5.484375 5.269531 4.722656 5.835938 C 4.476562 6.070312 4.210938 6.183594 3.960938 6.402344 C 3.023438 7.203125 2.234375 8.171875 1.636719 9.253906 C 1.023438 10.332031 0.589844 11.492188 0.378906 12.699219 C 0.191406 13.867188 0.0625 15.042969 0 16.226562 L 0 43.554688 C 0 44.746094 0.128906 45.9375 0.378906 47.101562 C 0.847656 49.492188 2.09375 51.6875 3.941406 53.382812 C 4.878906 54.238281 5.957031 54.933594 7.125 55.433594 C 8.289062 55.996094 9.535156 56.371094 10.816406 56.578125 C 12.085938 56.8125 13.488281 56.8125 14.757812 56.925781 L 45.195312 56.925781 C 46.515625 56.921875 47.835938 56.808594 49.136719 56.578125 C 50.394531 56.371094 51.617188 55.992188 52.761719 55.449219 C 53.949219 54.914062 55.058594 54.226562 56.0625 53.394531 C 56.988281 52.589844 57.765625 51.625 58.351562 50.542969 C 58.980469 49.476562 59.410156 48.3125 59.621094 47.109375 C 59.8125 45.933594 59.9375 44.75 60 43.566406 L 60 16.519531 Z M 59.933594 16.507812 "/>
<path style=" stroke:none;fill-rule:nonzero;fill:rgb(99.607843%,99.607843%,99.607843%);fill-opacity:1;" d="M 40.066406 44.730469 C 34.722656 47.507812 27.386719 47.789062 20.015625 44.949219 C 14.265625 42.75 9.34375 38.960938 5.886719 34.070312 C 7.5 35.210938 9.253906 36.160156 11.113281 36.890625 C 18.730469 40.027344 26.367188 39.886719 31.722656 36.890625 C 24.652344 31.773438 18.28125 25.828125 12.761719 19.203125 C 11.8125 18.246094 10.960938 17.195312 10.222656 16.066406 C 16.019531 20.695312 22.179688 24.890625 28.660156 28.613281 C 23.941406 24.0625 19.601562 19.171875 15.683594 13.980469 C 22.21875 19.945312 29.402344 25.234375 37.117188 29.757812 L 37.941406 30.195312 C 38.164062 29.683594 38.355469 29.160156 38.519531 28.625 C 40.300781 22.792969 38.269531 16.160156 33.820312 10.671875 C 44.125 16.269531 50.226562 26.792969 47.683594 35.605469 C 47.683594 35.839844 47.554688 36.074219 47.46875 36.308594 L 47.550781 36.402344 C 52.644531 42.128906 51.246094 48.179688 50.601562 47.035156 C 47.816406 42.253906 42.65625 43.726562 40.066406 44.730469 Z M 40.066406 44.730469 "/>
</g>
</svg>
