<?xml version="1.0" encoding="UTF-8"?>
<svg xmlns="http://www.w3.org/2000/svg" xmlns:xlink="http://www.w3.org/1999/xlink" width="60px" height="60px" viewBox="0 0 60 60" version="1.1">
<g id="surface1">
<path style=" stroke:none;fill-rule:nonzero;fill:rgb(10.196078%,9.019608%,10.588235%);fill-opacity:1;" d="M 60 30 C 60 46.570312 46.570312 60 30 60 C 13.429688 60 0 46.570312 0 30 C 0 13.429688 13.429688 0 30 0 C 46.570312 0 60 13.429688 60 30 Z M 60 30 "/>
<path style=" stroke:none;fill-rule:nonzero;fill:rgb(100%,100%,100%);fill-opacity:1;" d="M 43.113281 11.101562 C 40.066406 11.207031 37.40625 12.882812 35.429688 15.210938 C 33.238281 17.757812 31.777344 20.78125 30.726562 23.863281 C 28.84375 22.320312 27.394531 20.328125 24.398438 19.457031 C 21.988281 18.714844 19.363281 19.195312 17.367188 20.742188 C 16.300781 21.539062 15.566406 22.746094 15.21875 23.875 C 14.3125 26.820312 16.167969 29.4375 17.011719 30.378906 L 18.855469 32.351562 C 19.234375 32.734375 20.148438 33.753906 19.703125 35.199219 C 19.21875 36.773438 17.320312 37.796875 15.371094 37.191406 C 14.5 36.929688 13.253906 36.28125 13.53125 35.367188 C 13.644531 34.996094 13.917969 34.710938 14.058594 34.390625 C 14.191406 34.113281 14.253906 33.90625 14.292969 33.78125 C 14.652344 32.621094 14.164062 31.109375 12.921875 30.726562 C 11.757812 30.367188 10.570312 30.652344 10.109375 32.148438 C 9.589844 33.847656 10.398438 36.929688 14.753906 38.246094 C 19.851562 39.816406 24.164062 37.035156 24.777344 33.414062 C 25.160156 31.144531 24.136719 29.460938 22.261719 27.3125 L 20.734375 25.625 C 19.832031 24.722656 19.492188 23.121094 20.449219 21.910156 C 21.257812 20.886719 22.410156 20.453125 24.296875 20.960938 C 27.050781 21.707031 28.277344 23.621094 30.328125 25.164062 C 29.484375 27.9375 28.925781 30.71875 28.429688 33.21875 L 28.125 35.082031 C 26.660156 42.761719 25.542969 46.976562 22.636719 49.398438 C 22.046875 49.8125 21.214844 50.4375 19.953125 50.480469 C 19.289062 50.503906 19.078125 50.046875 19.070312 49.847656 C 19.054688 49.386719 19.445312 49.171875 19.703125 48.964844 C 20.09375 48.75 20.679688 48.398438 20.640625 47.277344 C 20.59375 45.949219 19.496094 44.792969 17.90625 44.847656 C 16.714844 44.886719 14.898438 46.011719 14.964844 48.0625 C 15.039062 50.1875 17.015625 51.777344 19.996094 51.675781 C 21.589844 51.621094 25.144531 50.972656 28.652344 46.800781 C 32.734375 42.023438 33.875 36.546875 34.738281 32.535156 L 35.695312 27.238281 L 37.414062 27.363281 C 42.5 27.46875 45.042969 24.835938 45.082031 22.921875 C 45.101562 21.761719 44.320312 20.621094 43.21875 20.644531 C 42.429688 20.667969 41.441406 21.191406 41.203125 22.28125 C 40.972656 23.351562 42.820312 24.316406 41.375 25.25 C 40.347656 25.914062 38.507812 26.382812 35.914062 26 L 36.386719 23.394531 C 37.351562 18.453125 38.535156 12.371094 43.039062 12.226562 C 43.367188 12.210938 44.570312 12.242188 44.597656 13.035156 C 44.609375 13.300781 44.542969 13.367188 44.230469 13.976562 C 43.914062 14.425781 43.792969 14.851562 43.8125 15.316406 C 43.855469 16.582031 44.8125 17.40625 46.199219 17.355469 C 48.058594 17.296875 48.59375 15.488281 48.5625 14.554688 C 48.488281 12.375 46.1875 10.992188 43.140625 11.09375 Z M 43.113281 11.101562 "/>
</g>
</svg>
